<svg id="visual" viewBox="0 0 900 600" width="900" height="600" xmlns="http://www.w3.org/2000/svg" xmlns:xlink="http://www.w3.org/1999/xlink" version="1.1"><rect x="0" y="0" width="900" height="600" fill="#001220"></rect><defs><linearGradient id="grad1_0" x1="33.3%" y1="0%" x2="100%" y2="100%"><stop offset="20%" stop-color="#001220" stop-opacity="1"></stop><stop offset="80%" stop-color="#001220" stop-opacity="1"></stop></linearGradient></defs><defs><linearGradient id="grad2_0" x1="0%" y1="0%" x2="66.7%" y2="100%"><stop offset="20%" stop-color="#001220" stop-opacity="1"></stop><stop offset="80%" stop-color="#001220" stop-opacity="1"></stop></linearGradient></defs><g transform="translate(900, 0)"><path d="M0 405.6C-75.5 397.6 -151 389.7 -202.8 351.3C-254.6 312.9 -282.8 244.1 -312.6 180.5C-342.5 116.9 -374.1 58.4 -405.6 0L0 0Z" fill="#051b2a"></path></g><g transform="translate(0, 600)"><path d="M0 -405.6C74.7 -397.2 149.4 -388.7 202.8 -351.3C256.2 -313.8 288.4 -247.4 318.7 -184C349 -120.6 377.3 -60.3 405.6 0L0 0Z" fill="#051b2a"></path></g></svg>