<svg id="visual" viewBox="0 0 900 600" width="900" height="600" xmlns="http://www.w3.org/2000/svg" xmlns:xlink="http://www.w3.org/1999/xlink" version="1.1"><rect x="0" y="0" width="900" height="600" fill="#001220"></rect><defs><linearGradient id="grad1_0" x1="33.3%" y1="100%" x2="100%" y2="0%"><stop offset="20%" stop-color="#11273e" stop-opacity="1"></stop><stop offset="80%" stop-color="#11273e" stop-opacity="1"></stop></linearGradient></defs><defs><linearGradient id="grad1_1" x1="33.3%" y1="100%" x2="100%" y2="0%"><stop offset="20%" stop-color="#11273e" stop-opacity="1"></stop><stop offset="80%" stop-color="#081d2f" stop-opacity="1"></stop></linearGradient></defs><defs><linearGradient id="grad1_2" x1="33.3%" y1="100%" x2="100%" y2="0%"><stop offset="20%" stop-color="#001220" stop-opacity="1"></stop><stop offset="80%" stop-color="#081d2f" stop-opacity="1"></stop></linearGradient></defs><defs><linearGradient id="grad2_0" x1="0%" y1="100%" x2="66.7%" y2="0%"><stop offset="20%" stop-color="#11273e" stop-opacity="1"></stop><stop offset="80%" stop-color="#11273e" stop-opacity="1"></stop></linearGradient></defs><defs><linearGradient id="grad2_1" x1="0%" y1="100%" x2="66.7%" y2="0%"><stop offset="20%" stop-color="#081d2f" stop-opacity="1"></stop><stop offset="80%" stop-color="#11273e" stop-opacity="1"></stop></linearGradient></defs><defs><linearGradient id="grad2_2" x1="0%" y1="100%" x2="66.7%" y2="0%"><stop offset="20%" stop-color="#081d2f" stop-opacity="1"></stop><stop offset="80%" stop-color="#001220" stop-opacity="1"></stop></linearGradient></defs><g transform="translate(900, 600)"><path d="M-405.6 0C-360.7 -50.7 -315.7 -101.4 -287.5 -166C-259.3 -230.6 -247.9 -309 -202.8 -351.3C-157.7 -393.5 -78.8 -399.6 0 -405.6L0 0Z" fill="#051827"></path><path d="M-270.4 0C-240.4 -33.8 -210.5 -67.6 -191.7 -110.7C-172.9 -153.7 -165.3 -206 -135.2 -234.2C-105.1 -262.4 -52.6 -266.4 0 -270.4L0 0Z" fill="#0c2236"></path><path d="M-135.2 0C-120.2 -16.9 -105.2 -33.8 -95.8 -55.3C-86.4 -76.9 -82.6 -103 -67.6 -117.1C-52.6 -131.2 -26.3 -133.2 0 -135.2L0 0Z" fill="#11273e"></path></g><g transform="translate(0, 0)"><path d="M405.6 0C369.9 56 334.2 112.1 304.8 176C275.5 239.9 252.6 311.7 202.8 351.3C153.1 390.9 76.5 398.2 0 405.6L0 0Z" fill="#051827"></path><path d="M270.4 0C246.6 37.4 222.8 74.7 203.2 117.3C183.7 159.9 168.4 207.8 135.2 234.2C102 260.6 51 265.5 0 270.4L0 0Z" fill="#0c2236"></path><path d="M135.2 0C123.3 18.7 111.4 37.4 101.6 58.7C91.8 80 84.2 103.9 67.6 117.1C51 130.3 25.5 132.7 0 135.2L0 0Z" fill="#11273e"></path></g></svg>