<svg id="visual" viewBox="0 0 900 600" width="900" height="600" xmlns="http://www.w3.org/2000/svg" xmlns:xlink="http://www.w3.org/1999/xlink" version="1.1"><rect x="0" y="0" width="900" height="600" fill="#001220"></rect><defs><linearGradient id="grad1_0" x1="33.3%" y1="100%" x2="100%" y2="0%"><stop offset="20%" stop-color="#11273e" stop-opacity="1"></stop><stop offset="80%" stop-color="#11273e" stop-opacity="1"></stop></linearGradient></defs><defs><linearGradient id="grad1_1" x1="33.3%" y1="100%" x2="100%" y2="0%"><stop offset="20%" stop-color="#11273e" stop-opacity="1"></stop><stop offset="80%" stop-color="#001220" stop-opacity="1"></stop></linearGradient></defs><defs><linearGradient id="grad2_0" x1="0%" y1="100%" x2="66.7%" y2="0%"><stop offset="20%" stop-color="#11273e" stop-opacity="1"></stop><stop offset="80%" stop-color="#11273e" stop-opacity="1"></stop></linearGradient></defs><defs><linearGradient id="grad2_1" x1="0%" y1="100%" x2="66.7%" y2="0%"><stop offset="20%" stop-color="#001220" stop-opacity="1"></stop><stop offset="80%" stop-color="#11273e" stop-opacity="1"></stop></linearGradient></defs><g transform="translate(900, 600)"><path d="M-405.6 0C-376.4 -59.8 -347.1 -119.6 -317 -183C-286.8 -246.4 -255.8 -313.6 -202.8 -351.3C-149.8 -389 -74.9 -397.3 0 -405.6L0 0Z" fill="#081d2f"></path><path d="M-202.8 0C-188.2 -29.9 -173.6 -59.8 -158.5 -91.5C-143.4 -123.2 -127.9 -156.8 -101.4 -175.6C-74.9 -194.5 -37.5 -198.7 0 -202.8L0 0Z" fill="#11273e"></path></g><g transform="translate(0, 0)"><path d="M405.6 0C397.1 74.6 388.6 149.1 351.3 202.8C314 256.5 247.8 289.2 184.5 319.6C121.2 349.9 60.6 377.8 0 405.6L0 0Z" fill="#081d2f"></path><path d="M202.8 0C198.6 37.3 194.3 74.6 175.6 101.4C157 128.2 123.9 144.6 92.3 159.8C60.6 174.9 30.3 188.9 0 202.8L0 0Z" fill="#11273e"></path></g></svg>