<svg id="visual" viewBox="0 0 900 600" width="900" height="600" xmlns="http://www.w3.org/2000/svg" xmlns:xlink="http://www.w3.org/1999/xlink" version="1.1"><rect x="0" y="0" width="900" height="600" fill="#001220"></rect><defs><linearGradient id="grad1_0" x1="33.3%" y1="100%" x2="100%" y2="0%"><stop offset="20%" stop-color="#123150" stop-opacity="1"></stop><stop offset="80%" stop-color="#123150" stop-opacity="1"></stop></linearGradient></defs><defs><linearGradient id="grad1_1" x1="33.3%" y1="100%" x2="100%" y2="0%"><stop offset="20%" stop-color="#123150" stop-opacity="1"></stop><stop offset="80%" stop-color="#082237" stop-opacity="1"></stop></linearGradient></defs><defs><linearGradient id="grad1_2" x1="33.3%" y1="100%" x2="100%" y2="0%"><stop offset="20%" stop-color="#001220" stop-opacity="1"></stop><stop offset="80%" stop-color="#082237" stop-opacity="1"></stop></linearGradient></defs><defs><linearGradient id="grad2_0" x1="0%" y1="100%" x2="66.7%" y2="0%"><stop offset="20%" stop-color="#123150" stop-opacity="1"></stop><stop offset="80%" stop-color="#123150" stop-opacity="1"></stop></linearGradient></defs><defs><linearGradient id="grad2_1" x1="0%" y1="100%" x2="66.7%" y2="0%"><stop offset="20%" stop-color="#082237" stop-opacity="1"></stop><stop offset="80%" stop-color="#123150" stop-opacity="1"></stop></linearGradient></defs><defs><linearGradient id="grad2_2" x1="0%" y1="100%" x2="66.7%" y2="0%"><stop offset="20%" stop-color="#082237" stop-opacity="1"></stop><stop offset="80%" stop-color="#001220" stop-opacity="1"></stop></linearGradient></defs><g transform="translate(900, 600)"><path d="M-459.7 0C-429.4 -69.4 -399.1 -138.8 -364.6 -210.5C-330.1 -282.2 -291.3 -356.2 -229.9 -398.1C-168.4 -440 -84.2 -449.9 0 -459.7L0 0Z" fill="#051a2b"></path><path d="M-306.5 0C-286.3 -46.3 -266.1 -92.5 -243.1 -140.3C-220 -188.1 -194.2 -237.5 -153.2 -265.4C-112.3 -293.4 -56.1 -299.9 0 -306.5L0 0Z" fill="#0c2943"></path><path d="M-153.2 0C-143.1 -23.1 -133 -46.3 -121.5 -70.2C-110 -94.1 -97.1 -118.7 -76.6 -132.7C-56.1 -146.7 -28.1 -150 0 -153.2L0 0Z" fill="#123150"></path></g><g transform="translate(0, 0)"><path d="M459.7 0C421.6 64.9 383.4 129.7 349.9 202C316.3 274.3 287.4 353.9 229.9 398.1C172.3 442.3 86.2 451 0 459.7L0 0Z" fill="#051a2b"></path><path d="M306.5 0C281 43.2 255.6 86.5 233.2 134.7C210.9 182.8 191.6 236 153.2 265.4C114.9 294.9 57.4 300.7 0 306.5L0 0Z" fill="#0c2943"></path><path d="M153.2 0C140.5 21.6 127.8 43.2 116.6 67.3C105.4 91.4 95.8 118 76.6 132.7C57.4 147.4 28.7 150.3 0 153.2L0 0Z" fill="#123150"></path></g></svg>